<svg width="23" height="32" fill="none" xmlns="http://www.w3.org/2000/svg"><g clip-path="url('#clip0_751_412')"><path d="M18.078 13h-2.136c-.793 0-1.552-.32-2.113-.887a3.057 3.057 0 0 1-.876-2.143V6.502a6.571 6.571 0 0 0-1.077-3.613A6.426 6.426 0 0 0 9.003.493a6.317 6.317 0 0 0-3.7-.372 6.376 6.376 0 0 0-3.28 1.776A6.532 6.532 0 0 0 .267 5.224 6.593 6.593 0 0 0 .628 8.98a6.483 6.483 0 0 0 2.356 2.92A6.338 6.338 0 0 0 6.541 13h3.43c.793 0 1.553.32 2.114.888.56.57.875 1.34.875 2.145v4.341c0 .803-.312 1.573-.87 2.142a2.963 2.963 0 0 1-2.108.891H6.123a1.687 1.687 0 0 0-1.207.508 1.736 1.736 0 0 0-.5 1.226v5.199a1.756 1.756 0 0 0 .5 1.226 1.708 1.708 0 0 0 1.207.508h5.122c.453 0 .887-.183 1.208-.508.32-.325.5-.767.5-1.226V26.44c0-.805.315-1.576.875-2.145a2.966 2.966 0 0 1 2.114-.889h2.136a5.09 5.09 0 0 0 3.537-1.57 5.244 5.244 0 0 0 1.454-3.63 5.243 5.243 0 0 0-1.454-3.63 5.09 5.09 0 0 0-3.537-1.57V13Z" fill="#fff"/></g><defs><clipPath id="clip0_751_412"><path fill="#fff" transform="translate(.143)" d="M0 0h22.857v32H0z"/></clipPath></defs></svg>