<?xml version="1.0" encoding="utf-8"?>
<!-- Generator: Adobe Illustrator 27.5.0, SVG Export Plug-In . SVG Version: 6.00 Build 0)  -->
<svg version="1.1" id="Capa_1" xmlns="http://www.w3.org/2000/svg" xmlns:xlink="http://www.w3.org/1999/xlink" x="0px" y="0px"
	 viewBox="0 0 757.3 186.5" style="enable-background:new 0 0 757.3 186.5;" xml:space="preserve">
<style type="text/css">
	.st0{fill:#754BDE;}
</style>
<g>
	<path class="st0" d="M46.7,117.1c-4.7-1.9-10.6-2.8-17.6-2.8c-2.3,0-4.7,0-7.3,0.1c-2.6,0-5.1,0.1-7.5,0.3c-2.1,0.1-4,0.3-5.7,0.4
		c-0.5,0-0.9,0.5-0.9,1V129c0,0.6,0.5,1,1.1,1c2.1-0.1,4.4-0.3,7-0.4c3-0.1,6-0.2,8.9-0.3c3-0.1,5.5-0.1,7.6-0.1c4,0,7,1,9,2.9
		s2.9,4.9,2.9,8.9v0.6h-14c-6.1,0-11.4,0.8-15.9,2.4s-8,4-10.5,7.2c-2.5,3.2-3.7,7.3-3.7,12.4c0,4.6,1,8.6,3.1,11.9
		c2.1,3.3,5,5.8,8.7,7.6s8.1,2.7,13.1,2.7c4.8,0,8.9-0.9,12.2-2.6c3.3-1.7,5.9-4.2,7.8-7.5c0.9-1.5,1.5-3.1,2.1-4.9V183
		c0,0.5,0.5,1,1,1H60c0.5,0,1-0.5,1-1v-41.6c0-6.4-1.2-11.6-3.6-15.6C54.9,121.9,51.4,118.9,46.7,117.1 M44.1,158.6
		c-0.2,3.7-1,6.6-2.3,8.8c-1.4,2.1-3.1,3.7-5.2,4.5c-2.1,0.9-4.3,1.3-6.8,1.3c-4,0-7.1-1-9.3-2.9s-3.2-4.5-3.2-7.6s1.1-5.7,3.2-7.6
		c2.1-2,5.2-3,9.3-3h14.3L44.1,158.6L44.1,158.6z M141.9,123.2c-2.8-3.2-6.1-5.6-10-7.4c-3.9-1.8-8.2-2.7-12.9-2.7
		c-5.3,0-10.1,1.2-14.3,3.5c-4,2.2-7.2,5.5-9.6,9.9V92.7c0-0.5-0.5-1-1-1H78.6c-0.5,0-1,0.5-1,1V183c0,0.5,0.5,1,1,1h11.9
		c0.5,0,1-0.5,1-1v-14c0.4,1.1,0.9,2.1,1.4,3.1c2.5,4.6,5.8,8.2,10.1,10.6s9.3,3.6,14.9,3.6c5,0,9.5-0.9,13.5-2.7s7.4-4.3,10.3-7.6
		s5.1-7,6.6-11.3c1.5-4.3,2.3-8.9,2.3-13.9V148c0-5-0.7-9.6-2.2-13.8C146.8,130.1,144.7,126.4,141.9,123.2 M130.5,160.9
		c-1.6,3.3-3.8,5.9-6.6,7.8c-2.8,1.9-6.1,2.8-9.9,2.8c-3.3,0-6.4-0.8-9.4-2.3c-3-1.5-5.4-3.7-7.2-6.5s-2.8-6.1-2.8-10.1v-5.1
		c0-4.1,0.9-7.7,2.7-10.6c1.8-3,4.2-5.2,7.1-6.7c2.9-1.5,6.1-2.3,9.5-2.3c3.8,0,7.1,0.9,9.9,2.7s5,4.3,6.6,7.5
		c1.6,3.2,2.4,7,2.4,11.4C133,153.8,132.1,157.6,130.5,160.9 M253.8,96h-14.4c-0.5,0-1,0.5-1,1v17.5H228c-0.5,0-1,0.5-1,1v12.8
		c0,0.5,0.5,1,1,1h10.4l-0.1,28.9c0,6.7,1,12,3,15.9c2,3.9,5.1,6.7,9.2,8.4c4.1,1.6,9.3,2.5,15.6,2.5h8c0.5,0,1-0.5,1-1v-13
		c0-0.5-0.5-1-1-1h-8.9c-3.4,0-6-0.9-7.8-2.7c-1.8-1.8-2.6-4.4-2.6-7.8v-30.1h19.3c0.5,0,1-0.5,1-1v-12.8c0-0.5-0.5-1-1-1h-19.3V97
		C254.8,96.4,254.4,96,253.8,96 M380.4,117.1c-4.7-1.9-10.6-2.8-17.6-2.8c-2.3,0-4.7,0-7.3,0.1s-5.1,0.1-7.5,0.3
		c-2.1,0.1-4,0.3-5.7,0.4c-0.5,0-0.9,0.5-0.9,1V129c0,0.6,0.5,1,1.1,1c2.1-0.1,4.4-0.3,7-0.4c3-0.1,6-0.2,8.9-0.3
		c3-0.1,5.5-0.1,7.6-0.1c4,0,7,1,9,2.9s2.9,4.9,2.9,8.9v0.6h-14c-6.1,0-11.4,0.8-15.9,2.4s-8,4-10.5,7.2c-2.5,3.2-3.7,7.3-3.7,12.4
		c0,4.6,1,8.6,3.1,11.9c2.1,3.3,5,5.8,8.7,7.6s8.1,2.7,13.1,2.7c4.8,0,8.9-0.9,12.2-2.6c3.3-1.7,5.9-4.2,7.8-7.5
		c0.8-1.5,1.5-3.1,2.1-4.9V183c0,0.5,0.5,1,1,1h11.9c0.5,0,1-0.5,1-1v-41.6c0-6.4-1.2-11.6-3.6-15.6
		C388.6,121.9,385.1,118.9,380.4,117.1 M377.8,158.6c-0.2,3.7-1,6.6-2.3,8.8c-1.4,2.1-3.1,3.7-5.2,4.5c-2.1,0.9-4.3,1.3-6.8,1.3
		c-4,0-7.2-1-9.3-2.9c-2.2-1.9-3.2-4.5-3.2-7.6s1.1-5.7,3.2-7.6c2.2-2,5.2-3,9.3-3h14.3L377.8,158.6L377.8,158.6z M455.7,165
		c-1.3,1.9-3,3.5-5.2,4.5c-2.2,1.1-4.8,1.6-7.8,1.6c-4,0-7.4-0.9-9.9-2.8c-2.6-1.9-4.5-4.4-5.7-7.7c-1.2-3.3-1.8-7-1.8-11
		c0-4.2,0.6-8,1.9-11.2c1.3-3.2,3.2-5.8,5.8-7.6s5.8-2.8,9.7-2.8c4.5,0,8,1.2,10.6,3.5c2.4,2.2,3.8,4.9,4.4,8c0.1,0.5,0.5,0.8,1,0.8
		h15.1c0.6,0,1-0.5,1-1.1c-0.5-5-2-9.5-4.7-13.3c-2.8-4.1-6.6-7.4-11.3-9.7c-4.7-2.3-10.1-3.5-16.1-3.5c-5.7,0-10.8,1-15.1,3
		c-4.3,2-8,4.6-10.9,8c-3,3.3-5.2,7.1-6.6,11.4c-1.5,4.3-2.2,8.7-2.2,13.3v2.4c0,4.4,0.7,8.7,2.2,12.9c1.4,4.2,3.6,8,6.5,11.4
		c2.9,3.4,6.5,6.1,10.9,8.1c4.3,2,9.5,3,15.5,3c6.1,0,11.5-1.2,16.3-3.5c4.8-2.4,8.6-5.6,11.5-9.8c2.7-3.9,4.3-8.4,4.8-13.5
		c0.1-0.6-0.4-1.1-1-1.1h-15.1c-0.5,0-0.9,0.3-1,0.8C457.7,161.4,456.9,163.3,455.7,165 M594.6,125.8c-2.4-4-5.9-6.9-10.6-8.7
		c-4.7-1.9-10.6-2.8-17.6-2.8c-2.3,0-4.7,0-7.3,0.1c-2.6,0-5.1,0.1-7.5,0.3c-2.1,0.1-3.9,0.3-5.7,0.4c-0.5,0-0.9,0.5-0.9,1V129
		c0,0.6,0.5,1,1.1,1c2.1-0.1,4.4-0.3,7-0.4c3-0.1,6-0.2,8.9-0.3c3-0.1,5.5-0.1,7.6-0.1c4,0,7,1,9,2.9c1.9,1.9,2.9,4.9,2.9,8.9v0.6
		h-14c-6.1,0-11.4,0.8-15.9,2.4c-4.5,1.6-8,4-10.5,7.2c-2.5,3.2-3.7,7.3-3.7,12.4c0,4.6,1,8.6,3.1,11.9c2.1,3.3,5,5.8,8.7,7.6
		c3.8,1.8,8.1,2.7,13.1,2.7c4.8,0,8.9-0.9,12.2-2.6c3.3-1.7,5.9-4.2,7.8-7.5c0.8-1.5,1.5-3.1,2.1-4.9V183c0,0.5,0.5,1,1,1h11.9
		c0.5,0,1-0.5,1-1v-41.6C598.2,135,597,129.8,594.6,125.8 M581.4,158.6c-0.2,3.7-0.9,6.6-2.3,8.8c-1.4,2.1-3.1,3.7-5.2,4.5
		c-2.1,0.9-4.3,1.3-6.8,1.3c-4,0-7.1-1-9.3-2.9c-2.2-1.9-3.2-4.5-3.2-7.6s1.1-5.7,3.2-7.6c2.2-2,5.2-3,9.3-3h14.3L581.4,158.6
		L581.4,158.6z M291.7,119.2c-1.7,3-2.2,5.5-2.2,9.2V183c0,0.5,0.5,1,1,1H306c0.5,0,1-0.5,1-1v-53.7h19.3c0.5,0,1-0.5,1-1v-12.8
		c0-0.5-0.5-1-1-1h-22.9C297.6,114.4,293.4,116.1,291.7,119.2 M507.3,96h-14.4c-0.5,0-1,0.5-1,1v17.5h-10.4c-0.5,0-1,0.5-1,1v12.8
		c0,0.5,0.5,1,1,1h10.4l-0.1,28.9c0,6.7,1,12,3,15.9c2,3.9,5.1,6.7,9.2,8.4c4.1,1.6,9.3,2.5,15.6,2.5h8c0.5,0,1-0.5,1-1v-13
		c0-0.5-0.5-1-1-1h-8.9c-3.4,0-6-0.9-7.8-2.7c-1.8-1.8-2.6-4.4-2.6-7.8v-30.1h19.3c0.5,0,1-0.5,1-1v-12.8c0-0.5-0.5-1-1-1h-19.3V97
		C508.3,96.4,507.9,96,507.3,96 M200.1,144.1c-1.6-0.4-3.2-0.7-5-0.9c-13.4-1.8-17.6-4.9-17.3-9.4c0.3-4.8,4.1-6.4,14.2-6.1
		c7.7,0.2,15.8,1.9,21.9,2.9c0.6,0.1,1.2-0.4,1.2-1v-13.2c0-0.5-0.3-0.9-0.8-1c-6.5-1.1-17.3-2.4-26.4-2.4c-18.8,0-28,7.7-27.7,22.6
		c0.2,10.8,5.4,18,26.9,21.4c12.5,2.1,16.5,3.8,16.6,8.4c0.1,5.2-4.2,6.5-14.7,6.5c-8.1,0-20.3-2.2-25.8-3.4c-0.6-0.1-1.2,0.3-1.2,1
		V183c0,0.5,0.3,0.9,0.8,1c6,1.2,17.2,2.5,25.9,2.5c21.4,0,32.9-7.3,32.7-23C221.2,156.1,216.6,147.9,200.1,144.1"/>
	<path class="st0" d="M727.5,74.6L727.5,74.6h-12.4c-9.6,0-17.4-7.8-17.4-17.4V37.3l0,0C697.7,16.7,681,0,660.4,0
		c-20.6,0-37.3,16.7-37.3,37.3c0,20.6,16.7,37.3,37.2,37.3l0,0h19.9c9.6,0,17.4,7.8,17.4,17.4l0,0v12.4v12.4
		c0,9.6-7.8,17.4-17.4,17.4h-22.4c-5.5,0-9.9,4.5-9.9,10V174c0,5.5,4.5,9.9,9.9,9.9h29.8c5.5,0,9.9-4.5,9.9-9.9v-10l0,0v-12.4
		c0-9.6,7.8-17.4,17.4-17.4h12.4c16.5,0,29.8-13.4,29.8-29.8C757.3,87.9,744,74.6,727.5,74.6"/>
</g>
</svg>
